%FSTAX23Y23*%
%MOIN*%
%SFA1B1*%

%IPPOS*%
%ADD15C,0.010000*%
%ADD16C,0.015000*%
%ADD17C,0.078740*%
%ADD18C,0.020000*%
%ADD19C,0.030000*%
%ADD20C,0.050000*%
%ADD21R,0.118110X0.196850*%
%ADD22R,0.196850X0.118110*%
%ADD23C,0.020000*%
%LNactive_electrode-1*%
%LPD*%
G36*
X00488Y00842D02*
X00528Y00836D01*
X00568Y00826*
X00606Y00812*
X00643Y00795*
X00678Y00774*
X0071Y0075*
X0074Y00722*
X00768Y00692*
X00792Y0066*
X00813Y00625*
X0083Y00588*
X00844Y0055*
X00854Y0051*
X0086Y0047*
X00862Y0043*
X0086Y00389*
X00854Y00349*
X00844Y00309*
X0083Y00271*
X00813Y00234*
X00792Y00199*
X00768Y00167*
X0074Y00137*
X0071Y00109*
X00678Y00085*
X00643Y00064*
X00606Y00047*
X00568Y00033*
X00528Y00023*
X00488Y00017*
X00448Y00016*
X00407Y00017*
X00367Y00023*
X00327Y00033*
X00289Y00047*
X00252Y00064*
X00218Y00085*
X00185Y00109*
X00155Y00137*
X00128Y00167*
X00103Y00199*
X00083Y00234*
X00065Y00271*
X00051Y00309*
X00042Y00349*
X00036Y00389*
X00034Y0043*
X00036Y0047*
X00042Y0051*
X00051Y0055*
X00065Y00588*
X00083Y00625*
X00103Y0066*
X00128Y00692*
X00155Y00722*
X00185Y0075*
X00218Y00774*
X00252Y00795*
X00289Y00812*
X00327Y00826*
X00367Y00836*
X00407Y00842*
X00448Y00844*
X00488Y00842*
G37*
%LNactive_electrode-2*%
%LPC*%
G36*
X00552Y00691D02*
X00343D01*
Y00585*
X00292Y00534*
X00186*
Y00325*
X00294*
X00343Y00277*
Y00168*
X00486*
X00486Y00167*
X00485Y00162*
X00483Y00162*
X00478Y00158*
X00474Y00153*
X00473Y00146*
X00474Y0014*
X00478Y00135*
X00483Y00131*
X0049Y0013*
X00496Y00131*
X00501Y00135*
X00501Y00135*
X0051*
X00511Y00133*
X00512Y0013*
X00509Y00126*
X00509Y00123*
X00345*
X00196Y00273*
X00196Y00275*
X00194Y00283*
X0019Y0029*
X00183Y00294*
X00176Y00296*
Y00468*
X00176Y00468*
X0018Y00473*
X00181Y0048*
X0018Y00486*
X00176Y00491*
X00171Y00495*
X00165Y00496*
X00158Y00495*
X00153Y00491*
X00149Y00486*
X00148Y0048*
X00149Y00473*
X00153Y00468*
X00153Y00468*
Y00285*
X00153*
X00154Y0028*
X00154Y0028*
X00153Y00275*
X00155Y00266*
X00159Y00259*
X00166Y00255*
X00175Y00253*
X00176Y00253*
X0033Y001*
X00334Y00097*
X0034Y00096*
X00565*
X0057Y00097*
X00574Y001*
X00609Y00135*
X00612Y00139*
X00613Y00145*
X00613*
Y00178*
X00615Y00179*
X00619Y00186*
X00621Y00195*
X00619Y00203*
X00615Y0021*
X00608Y00214*
X006Y00216*
X00591Y00214*
X00589Y00213*
X00585Y00215*
Y00228*
X00589Y0023*
X00592Y00236*
X00593Y00242*
X00592Y00248*
X00589Y00254*
X00583Y00257*
X00577Y00258*
X00571Y00257*
X00565Y00254*
X00562Y00248*
X00561Y00242*
X00562Y00236*
X00562Y00235*
Y00177*
X00557Y00172*
X00552Y00174*
Y00273*
X00601Y00325*
X0071*
Y00534*
X006*
X00573Y00561*
X00552Y00583*
Y00691*
G37*
%LNactive_electrode-3*%
%LPD*%
G54D15*
X00666Y00428D02*
X00667Y00442D01*
X00453Y00646D02*
D01*
X00433Y00651D02*
X00453Y00646D01*
X00452Y00647D02*
D01*
X00433Y00651D02*
X00452Y00647D01*
X00233Y00431D02*
X00236Y00455D01*
X00231Y0041D02*
X00233Y00431D01*
X00662Y00447D02*
X00667Y00442D01*
X00662Y00412D02*
X0067Y0042D01*
X00452Y00647D02*
X00466Y00645D01*
X00453Y00646D02*
X00472Y00641D01*
X00666Y00428D02*
X00666Y00419D01*
X00548Y00146D02*
X00574Y00172D01*
Y00239*
X00577Y00242*
X00165Y00285D02*
Y0048D01*
Y00285D02*
X00175Y00275D01*
X0049Y00146D02*
X00548D01*
X00525Y00115D02*
Y0012D01*
Y00115D02*
X0053Y0011D01*
X00665Y0019D02*
X00815Y0034D01*
X0064Y0019D02*
X00665D01*
X0076Y0051D02*
X00815Y00455D01*
Y0034D02*
Y00455D01*
X00231Y0041D02*
X00231Y00409D01*
X00662Y00447D02*
D01*
X00452Y00647D02*
D01*
G54D16*
X0034Y0011D02*
X0053D01*
X00175Y00275D02*
X0034Y0011D01*
X0053D02*
X00565D01*
X006Y00145*
Y00195*
G54D17*
X00448Y0043D03*
G54D18*
X00577Y00242D03*
X00165Y0048D03*
X00525Y0012D03*
X0064Y0019D03*
X0049Y00146D03*
X0076Y0051D03*
X00562Y0055D03*
G54D19*
X006Y00195D03*
X00175Y00275D03*
G54D20*
X0015Y00215D03*
X00195Y0015D03*
X0076Y0061D03*
X00675Y00705D03*
X00755Y0021D03*
X0027Y00665D03*
X00605Y0067D03*
X00445Y00775D03*
X00175Y0067D03*
X00585Y0076D03*
X003Y00755D03*
G54D21*
X00645Y0043D03*
X00251D03*
G54D22*
X00448Y00626D03*
Y00233D03*
G54D23*
X00562Y0055D02*
X00662Y00447D01*
X00236Y00455D02*
X00433Y00651D01*
X00482Y00223D02*
X00661Y00414D01*
X00666Y00419D01*
X00231Y00409D02*
X0043Y00215D01*
X00661Y00414D02*
D01*
X00472Y00641D02*
X00562Y0055D01*
M02*