%FSTAX23Y23*%
%MOIN*%
%SFA1B1*%

%IPPOS*%
%ADD15C,0.010000*%
%ADD24C,0.007870*%
%ADD25C,0.005000*%
%LNactive_electrode-1*%
%LPD*%
G54D15*
X00173Y00384D02*
D01*
X00173Y00384*
X00173Y00385*
X00173Y00385*
X00173Y00385*
X00173Y00386*
X00173Y00386*
X00173Y00386*
X00173Y00387*
X00172Y00387*
X00172Y00387*
X00172Y00387*
X00172Y00388*
X00171Y00388*
X00171Y00388*
X00171Y00388*
X00171Y00388*
X0017Y00389*
X0017Y00389*
X0017Y00389*
X00169Y00389*
X00169Y00389*
X00168Y00389*
X00168*
X00168Y00389*
X00167Y00389*
X00167Y00389*
X00167Y00389*
X00166Y00389*
X00166Y00388*
X00166Y00388*
X00166Y00388*
X00165Y00388*
X00165Y00388*
X00165Y00387*
X00164Y00387*
X00164Y00387*
X00164Y00387*
X00164Y00386*
X00164Y00386*
X00164Y00386*
X00164Y00385*
X00163Y00385*
X00163Y00385*
X00163Y00384*
X00163Y00384*
X00163Y00384*
X00163Y00383*
X00163Y00383*
X00164Y00383*
X00164Y00382*
X00164Y00382*
X00164Y00382*
X00164Y00381*
X00164Y00381*
X00164Y00381*
X00165Y00381*
X00165Y0038*
X00165Y0038*
X00166Y0038*
X00166Y0038*
X00166Y00379*
X00166Y00379*
X00167Y00379*
X00167Y00379*
X00167Y00379*
X00168Y00379*
X00168Y00379*
X00168*
X00169Y00379*
X00169Y00379*
X0017Y00379*
X0017Y00379*
X0017Y00379*
X00171Y00379*
X00171Y0038*
X00171Y0038*
X00171Y0038*
X00172Y0038*
X00172Y00381*
X00172Y00381*
X00172Y00381*
X00173Y00381*
X00173Y00382*
X00173Y00382*
X00173Y00382*
X00173Y00383*
X00173Y00383*
X00173Y00383*
X00173Y00384*
X00173Y00384*
X0072Y0047D02*
D01*
X00719Y0047*
X00719Y00471*
X00719Y00471*
X00719Y00471*
X00719Y00472*
X00719Y00472*
X00719Y00472*
X00719Y00473*
X00719Y00473*
X00718Y00473*
X00718Y00473*
X00718Y00474*
X00718Y00474*
X00717Y00474*
X00717Y00474*
X00717Y00475*
X00716Y00475*
X00716Y00475*
X00716Y00475*
X00715Y00475*
X00715Y00475*
X00715Y00475*
X00714*
X00714Y00475*
X00714Y00475*
X00713Y00475*
X00713Y00475*
X00713Y00475*
X00712Y00475*
X00712Y00474*
X00712Y00474*
X00711Y00474*
X00711Y00474*
X00711Y00473*
X00711Y00473*
X0071Y00473*
X0071Y00473*
X0071Y00472*
X0071Y00472*
X0071Y00472*
X0071Y00471*
X0071Y00471*
X0071Y00471*
X0071Y0047*
X0071Y0047*
X0071Y0047*
X0071Y00469*
X0071Y00469*
X0071Y00469*
X0071Y00468*
X0071Y00468*
X0071Y00468*
X0071Y00467*
X0071Y00467*
X00711Y00467*
X00711Y00467*
X00711Y00466*
X00711Y00466*
X00712Y00466*
X00712Y00466*
X00712Y00466*
X00713Y00465*
X00713Y00465*
X00713Y00465*
X00714Y00465*
X00714Y00465*
X00714Y00465*
X00715*
X00715Y00465*
X00715Y00465*
X00716Y00465*
X00716Y00465*
X00716Y00465*
X00717Y00466*
X00717Y00466*
X00717Y00466*
X00718Y00466*
X00718Y00466*
X00718Y00467*
X00718Y00467*
X00719Y00467*
X00719Y00467*
X00719Y00468*
X00719Y00468*
X00719Y00468*
X00719Y00469*
X00719Y00469*
X00719Y00469*
X00719Y0047*
X0072Y0047*
X00409Y00305D02*
D01*
X00409Y00305*
X00409Y00305*
X00409Y00306*
X00409Y00306*
X00409Y00306*
X00409Y00307*
X00408Y00307*
X00408Y00307*
X00408Y00307*
X00408Y00308*
X00408Y00308*
X00407Y00308*
X00407Y00308*
X00407Y00309*
X00406Y00309*
X00406Y00309*
X00406Y00309*
X00406Y00309*
X00405Y00309*
X00405Y00309*
X00405Y00309*
X00404Y00309*
X00404*
X00403Y00309*
X00403Y00309*
X00403Y00309*
X00402Y00309*
X00402Y00309*
X00402Y00309*
X00401Y00309*
X00401Y00309*
X00401Y00308*
X00401Y00308*
X004Y00308*
X004Y00308*
X004Y00307*
X004Y00307*
X004Y00307*
X00399Y00307*
X00399Y00306*
X00399Y00306*
X00399Y00306*
X00399Y00305*
X00399Y00305*
X00399Y00305*
X00399Y00304*
X00399Y00304*
X00399Y00303*
X00399Y00303*
X00399Y00303*
X00399Y00302*
X004Y00302*
X004Y00302*
X004Y00302*
X004Y00301*
X004Y00301*
X00401Y00301*
X00401Y00301*
X00401Y003*
X00401Y003*
X00402Y003*
X00402Y003*
X00402Y003*
X00403Y003*
X00403Y003*
X00403Y003*
X00404Y003*
X00404*
X00405Y003*
X00405Y003*
X00405Y003*
X00406Y003*
X00406Y003*
X00406Y003*
X00406Y003*
X00407Y003*
X00407Y00301*
X00407Y00301*
X00408Y00301*
X00408Y00301*
X00408Y00302*
X00408Y00302*
X00408Y00302*
X00409Y00302*
X00409Y00303*
X00409Y00303*
X00409Y00303*
X00409Y00304*
X00409Y00304*
X00409Y00305*
G54D24*
X00193Y00389D02*
Y00469D01*
X00288*
Y00389D02*
Y00469D01*
X00193Y00389D02*
X00288D01*
X00595Y00465D02*
X0069D01*
X00595Y00385D02*
Y00465D01*
Y00385D02*
X0069D01*
Y00465*
X00409Y00185D02*
Y0028D01*
Y00185D02*
X00489D01*
Y0028*
X00409D02*
X00489D01*
G54D25*
X002Y00574D02*
Y0055D01*
X00205Y00545*
X00214*
X00219Y0055*
Y00574*
X00229Y00569D02*
X00234Y00574D01*
X00244*
X00249Y00569*
Y00564*
X00244Y00559*
X00239*
X00244*
X00249Y00555*
Y0055*
X00244Y00545*
X00234*
X00229Y0055*
X00618Y00099D02*
X00613Y00104D01*
X00603*
X00598Y00099*
Y0008*
X00603Y00075*
X00613*
X00618Y0008*
X00628Y00099D02*
X00633Y00104D01*
X00643*
X00648Y00099*
Y00094*
X00643Y00089*
X00648Y00085*
Y0008*
X00643Y00075*
X00633*
X00628Y0008*
Y00085*
X00633Y00089*
X00628Y00094*
Y00099*
X00633Y00089D02*
X00643D01*
X00648Y00159D02*
X00643Y00164D01*
X00633*
X00628Y00159*
Y0014*
X00633Y00135*
X00643*
X00648Y0014*
X00658Y00164D02*
X00678D01*
Y00159*
X00658Y0014*
Y00135*
X00699Y00239D02*
X00694Y00244D01*
X00685*
X0068Y00239*
Y0022*
X00685Y00215*
X00694*
X00699Y0022*
X00729Y00244D02*
X00719Y00239D01*
X00709Y00229*
Y0022*
X00714Y00215*
X00724*
X00729Y0022*
Y00225*
X00724Y00229*
X00709*
X00698Y00284D02*
X00693Y00289D01*
X00683*
X00678Y00284*
Y00265*
X00683Y0026*
X00693*
X00698Y00265*
X00728Y00289D02*
X00708D01*
Y00274*
X00718Y00279*
X00723*
X00728Y00274*
Y00265*
X00723Y0026*
X00713*
X00708Y00265*
X00769Y00314D02*
X00764Y00319D01*
X00755*
X0075Y00314*
Y00295*
X00755Y0029*
X00764*
X00769Y00295*
X00779Y0029D02*
X00789D01*
X00784*
Y00319*
X00779Y00314*
X00294Y00136D02*
X0029Y00141D01*
X0028*
X00275Y00136*
Y00116*
X0028Y00111*
X0029*
X00294Y00116*
X00324Y00111D02*
X00304D01*
X00324Y00131*
Y00136*
X00319Y00141*
X00309*
X00304Y00136*
X00404Y00144D02*
X00399Y00149D01*
X0039*
X00385Y00144*
Y00125*
X0039Y0012*
X00399*
X00404Y00125*
X00414Y00144D02*
X00419Y00149D01*
X00429*
X00434Y00144*
Y00139*
X00429Y00134*
X00424*
X00429*
X00434Y0013*
Y00125*
X00429Y0012*
X00419*
X00414Y00125*
X00289Y00269D02*
X00284Y00274D01*
X00275*
X0027Y00269*
Y0025*
X00275Y00245*
X00284*
X00289Y0025*
X00314Y00245D02*
Y00274D01*
X00299Y0026*
X00319*
X0082Y00405D02*
X00849D01*
Y0039*
X00844Y00385*
X00834*
X0083Y0039*
Y00405*
Y00395D02*
X0082Y00385D01*
Y00375D02*
Y00365D01*
Y0037*
X00849*
X00844Y00375*
X00275Y0006D02*
Y00089D01*
X0029*
X00294Y00084*
Y00075*
X0029Y0007*
X00275*
X00285D02*
X00294Y0006D01*
X00324D02*
X00304D01*
X00324Y00079*
Y00084*
X00319Y00089*
X00309*
X00304Y00084*
X0074Y00465D02*
Y00494D01*
X00754*
X00759Y00489*
Y0048*
X00754Y00475*
X0074*
X0075D02*
X00759Y00465D01*
X00769Y00489D02*
X00774Y00494D01*
X00784*
X00789Y00489*
Y00484*
X00784Y0048*
X00779*
X00784*
X00789Y00475*
Y0047*
X00784Y00465*
X00774*
X00769Y0047*
X0065Y00585D02*
Y00615D01*
X00665*
X00669Y0061*
Y006*
X00665Y00595*
X0065*
X0066D02*
X00669Y00585D01*
X00694D02*
Y00615D01*
X00679Y006*
X00699*
X0042Y0002D02*
Y00049D01*
X00434*
X00439Y00044*
Y00035*
X00434Y0003*
X0042*
X0043D02*
X00439Y0002D01*
X00469Y00049D02*
X00449D01*
Y00035*
X00459Y00039*
X00464*
X00469Y00035*
Y00025*
X00464Y0002*
X00454*
X00449Y00025*
X00591Y00569D02*
Y00544D01*
X00596Y00539*
X00606*
X00611Y00544*
Y00569*
X00621Y00539D02*
X00631D01*
X00626*
Y00569*
X00621Y00564*
X0032Y00334D02*
Y0031D01*
X00325Y00305*
X00335*
X00339Y0031*
Y00334*
X00369Y00305D02*
X00349D01*
X00369Y00324*
Y00329*
X00364Y00334*
X00354*
X00349Y00329*
M02*