%FSTAX23Y23*%
%MOIN*%
%SFA1B1*%

%IPPOS*%
%ADD10R,0.011810X0.037400*%
%ADD11R,0.037400X0.011810*%
%ADD12R,0.023620X0.021650*%
%ADD13R,0.021650X0.023620*%
%ADD14C,0.059050*%
%ADD15C,0.010000*%
%ADD16C,0.015000*%
%ADD17C,0.078740*%
%ADD18C,0.020000*%
%ADD19C,0.030000*%
%ADD20C,0.050000*%
%LNactive_electrode-1*%
%LPD*%
G36*
X00636Y00312D02*
D01*
X00637Y00312*
X00668Y0028*
Y00172*
X00572Y00076*
X00547*
Y00106*
X00541*
Y00115*
X0054Y00117*
X00541Y0012*
X00544Y00123*
X00577*
Y00136*
X00582Y00137*
X00583Y00135*
X00585Y00132*
X00589Y00129*
X00593Y00128*
X00597Y00129*
X00601Y00132*
X00603Y00135*
X00604Y0014*
Y00153*
X00618*
X00618Y00153*
X00622Y00154*
X00626Y00157*
X00647Y00178*
X0065Y00182*
X00651Y00186*
Y00228*
X0065Y00232*
X00647Y00236*
X00644Y00238*
X0064Y00239*
X00637Y00239*
X00632Y00242*
Y00251*
X00626*
Y00258*
X00632*
Y00291*
X00614*
Y00321*
X00616Y00325*
X00623*
X00636Y00312*
G37*
G36*
X00488Y00842D02*
X00528Y00836D01*
X00568Y00826*
X00606Y00812*
X00643Y00795*
X00678Y00774*
X0071Y0075*
X0074Y00722*
X00768Y00692*
X00792Y0066*
X00813Y00625*
X0083Y00588*
X00844Y0055*
X00854Y0051*
X0086Y0047*
X00862Y0043*
X0086Y00389*
X00854Y00349*
X00844Y00309*
X0083Y00271*
X00813Y00234*
X00792Y00199*
X00768Y00167*
X0074Y00137*
X0071Y00109*
X00678Y00085*
X00643Y00064*
X00613Y0005*
X00611Y00055*
X00712Y00157*
X00715Y0016*
X00716Y00165*
Y00338*
X00723*
Y00332*
X00756*
Y00338*
X00774*
Y00332*
X00808*
Y00365*
Y00401*
X00802*
Y00426*
X00801Y00431*
X00799Y00434*
X00796Y00438*
Y00456*
X00727*
Y00451*
X00675*
X0067Y0045*
X00667Y00447*
X0062Y00401*
X00618Y00398*
X00617Y00393*
Y00378*
X00615Y00374*
X00591*
Y00325*
X00592*
Y00286*
X00592Y00286*
X00588Y00281*
X00549*
Y00281*
X005*
Y00258*
Y00256*
Y00233*
X00496Y0023*
X00473*
Y0023*
X00469Y00229*
X00465Y00226*
X00417Y00177*
X00414Y00174*
X00413Y0017*
Y00135*
X00414Y0013*
X00417Y00127*
X00437Y00107*
X0044Y00104*
X00443Y00104*
Y00097*
X00448*
Y0009*
X00408*
Y00084*
X00402*
Y00091*
X00371*
X00366Y00093*
Y00129*
X00353*
X00352Y00134*
X00354Y00134*
X00357Y00137*
X0036Y0014*
X00361Y00145*
Y00175*
X00365Y00177*
X00369Y00178*
X00373Y00181*
X00377Y00185*
X00379Y00188*
X0038Y00193*
X00379Y00197*
X00377Y00201*
X00376Y00201*
X00377Y00206*
X00394*
Y0023*
Y00232*
Y00256*
X00398Y00258*
X0041*
X00414Y00259*
X00417Y00262*
X00454Y00298*
X00525*
X00529Y00299*
X00532Y00302*
X00582Y00352*
X00585Y00355*
X00586Y0036*
Y00518*
X00595Y00528*
X0061*
X00616Y00521*
Y00513*
X00611Y00512*
X00611Y00513*
X00607Y00515*
X00603Y00516*
X00598Y00515*
X00595Y00513*
X00592Y00509*
X00592Y00505*
Y00481*
X00592Y00477*
X00595Y00473*
X00607Y00462*
X0061Y00459*
X00615Y00458*
X0067*
X00674Y00459*
X00677Y00462*
X00687Y00472*
X0069Y00475*
X00691Y0048*
Y00498*
X0076*
X00764Y00499*
X00767Y00502*
X0077Y00505*
X00771Y0051*
X0077Y00514*
X00767Y00517*
X00764Y0052*
X0076Y00521*
X00684*
X0068Y0052*
X00676Y00517*
X00672Y00513*
X00671Y00512*
X00666Y00513*
Y0053*
X00665*
Y00543*
X00706*
Y00576*
X00699*
X00698Y0058*
X00696Y00584*
X00687Y00593*
X00683Y00596*
X00679Y00597*
X0042*
X00416Y00596*
X00412Y00593*
X00307Y00487*
X00304Y00484*
X00303Y0048*
Y00231*
X00297*
Y00218*
X00292Y00217*
X00291Y00219*
X00289Y00222*
X00285Y00225*
X00281Y00226*
X00277Y00225*
X00273Y00222*
X00271Y00219*
X00266Y0022*
Y00324*
X00266*
Y00374*
X00246*
X00243*
X00238*
X00217*
X00215*
X00194*
X00152Y00416*
X00154Y0042*
X00155Y0043*
X00154Y00439*
X00151Y00447*
X00145Y00455*
X00137Y00461*
X00129Y00464*
X0012Y00465*
X0011Y00464*
X00102Y00461*
X00094Y00455*
X00088Y00447*
X00085Y00439*
X00084Y0043*
X00085Y0042*
X00088Y00412*
X00094Y00404*
X00102Y00398*
X0011Y00395*
X0012Y00394*
X00129Y00395*
X00137Y00398*
X00138Y00399*
X00191Y00345*
Y00324*
X00215*
X00217*
X00238*
X00241*
X00243Y0032*
Y00196*
X00244Y00191*
X00247Y00188*
X00325Y0011*
X00328Y00107*
X00332Y00106*
X00333Y00102*
Y00096*
Y00093*
X00333Y00091*
Y00058*
X00402*
Y00062*
X00408*
Y00056*
X00411*
X00415Y00054*
X00416Y0005*
X00418Y00046*
X00425Y00039*
X00428Y00037*
X00433Y00036*
X00558*
X00558Y00031*
X00528Y00023*
X00488Y00017*
X00448Y00016*
X00407Y00017*
X00367Y00023*
X00327Y00033*
X00289Y00047*
X00252Y00064*
X00218Y00085*
X00185Y00109*
X00155Y00137*
X00128Y00167*
X00103Y00199*
X00083Y00234*
X00065Y00271*
X00051Y00309*
X00042Y00349*
X00036Y00389*
X00034Y0043*
X00036Y0047*
X00042Y0051*
X00051Y0055*
X00065Y00588*
X00083Y00625*
X00103Y0066*
X00128Y00692*
X00155Y00722*
X00185Y0075*
X00218Y00774*
X00252Y00795*
X00289Y00812*
X00327Y00826*
X00367Y00836*
X00407Y00842*
X00448Y00844*
X00488Y00842*
G37*
G36*
X005Y00206D02*
X00516D01*
X00518Y00201*
X00517Y00201*
X00514Y00197*
X00513Y00193*
X00514Y00188*
X00517Y00185*
X0052Y00182*
X00525Y00182*
X00542*
X00562Y00161*
X0056Y00156*
X00542*
Y0015*
X0054Y0015*
X00537Y00147*
X00525Y00136*
X00525Y00136*
X00518Y00135*
X00513Y00131*
X00509Y00126*
X00508Y0012*
X00509Y00113*
X00511Y00111*
X00512Y00106*
Y00085*
X00507Y00083*
X00501Y00089*
Y00135*
X00501Y00135*
X00505Y0014*
X00506Y00146*
X00505Y00153*
X00501Y00158*
X00496Y00162*
X0049Y00163*
X00483Y00162*
X00481Y0016*
X00476Y00163*
Y00166*
X00444*
X00441Y0017*
X00478Y00207*
X005*
Y00206*
G37*
%LNactive_electrode-2*%
%LPC*%
G36*
X00268Y00529D02*
X00263D01*
X00245*
X00243*
X00238*
X00216*
X00211*
X00191*
Y00516*
X0019*
X00185Y00515*
X00182Y00512*
X00165Y00496*
X00165Y00496*
X00158Y00495*
X00153Y00491*
X00149Y00486*
X00148Y0048*
X00149Y00473*
X00153Y00468*
X00158Y00464*
X00165Y00463*
X00171Y00464*
X00176Y00468*
X0018Y00473*
X00181Y0048*
X00181Y0048*
X00187Y00486*
X00191Y00484*
Y0048*
X00211*
X00215*
X0022*
X00238*
X0024*
X00245*
X00263*
X00266*
X00271*
X00292*
Y00529*
X00268*
G37*
G36*
X0012Y00371D02*
X0011Y0037D01*
X00102Y00366*
X00094Y0036*
X00088Y00353*
X00085Y00344*
X00084Y00335*
X00085Y00326*
X00088Y00317*
X00094Y0031*
X00102Y00304*
X0011Y003*
X0012Y00299*
X00129Y003*
X00129Y00301*
X00153Y00276*
X00153Y00275*
X00155Y00266*
X00159Y00259*
X00166Y00255*
X00175Y00253*
X00183Y00255*
X0019Y00259*
X00194Y00266*
X00196Y00275*
X00194Y00283*
X0019Y0029*
X00183Y00294*
X00175Y00296*
X00173Y00296*
X00151Y00318*
X00154Y00326*
X00155Y00335*
X00154Y00344*
X00151Y00353*
X00145Y0036*
X00137Y00366*
X00129Y0037*
X0012Y00371*
G37*
%LNactive_electrode-3*%
%LPD*%
G54D10*
X00203Y00505D03*
X00228D03*
X00255D03*
X0028D03*
Y00349D03*
X00255D03*
X00229D03*
X00203D03*
X0068Y00505D03*
X00654D03*
X00628D03*
X00603D03*
Y0035D03*
X00628D03*
X00655D03*
X0068D03*
G54D11*
X00369Y0027D03*
Y00244D03*
Y00218D03*
Y00193D03*
X00525D03*
Y00218D03*
Y00245D03*
Y0027D03*
G54D12*
X00315Y00215D03*
X00281D03*
X0046Y00073D03*
X00426D03*
X00563Y0009D03*
X0053D03*
X00593Y0014D03*
X0056D03*
X00648Y00235D03*
X00615D03*
X00648Y00275D03*
X00615D03*
X00351Y00075D03*
X00385D03*
X00745Y0044D03*
X00778D03*
X00688Y0056D03*
X00655D03*
G54D13*
X0046Y00115D03*
Y00148D03*
X0074Y00383D03*
Y0035D03*
X0035Y00145D03*
Y00111D03*
X00791Y00383D03*
Y0035D03*
G54D14*
X0012Y00524D03*
Y0043D03*
Y00335D03*
G54D15*
X00525Y00245D02*
X00575D01*
X00577Y00242*
X0013Y0032D02*
Y00336D01*
X00603Y00286D02*
X00615Y00275D01*
X00603Y00286D02*
Y0035D01*
X0061Y0027D02*
X00615Y00275D01*
X00525Y0027D02*
X0061D01*
X00615Y00235D02*
Y00264D01*
X006Y0022D02*
X00615Y00235D01*
X006Y00195D02*
Y0022D01*
X00628Y00336D02*
Y0035D01*
Y00336D02*
X00644Y0032D01*
X00644D02*
X0068Y00285D01*
X00644Y0032D02*
X00644D01*
X0068Y00168D02*
Y00285D01*
X00576Y00065D02*
X0068Y00168D01*
X00575Y00165D02*
X00593D01*
X00546Y00193D02*
X00575Y00165D01*
X00705D02*
Y0035D01*
X00587Y00047D02*
X00705Y00165D01*
X00433Y00047D02*
X00587D01*
X0051Y00065D02*
X00576D01*
X0049Y00085D02*
X0051Y00065D01*
X0049Y00085D02*
Y00146D01*
X00426Y00054D02*
X00433Y00047D01*
X00365Y00189D02*
X00369Y00193D01*
X0035Y00189D02*
X00365D01*
X0013Y00423D02*
Y0043D01*
X0019Y00505D02*
X00203D01*
X00165Y0048D02*
X0019Y00505D01*
X0013Y00423D02*
X00203Y00349D01*
X00229*
X00255Y00196D02*
X00332Y00118D01*
X00255Y00196D02*
Y00349D01*
X00595Y00165D02*
X00618D01*
X00593D02*
X00595D01*
X00593Y00163D02*
Y00165D01*
Y0014D02*
Y00163D01*
X00618Y00165D02*
X0064Y00186D01*
X00593Y00163D02*
X00595Y00165D01*
X00545Y0014D02*
X0056D01*
X00525Y0012D02*
X00545Y0014D01*
X00525Y0012D02*
X0053Y00115D01*
Y0009D02*
Y00115D01*
X0064Y00186D02*
Y0019D01*
Y00228*
X00525Y00193D02*
X00546D01*
X00461Y00146D02*
X0049D01*
X0046Y00148D02*
X00461Y00146D01*
X00425Y00135D02*
X00445Y00115D01*
X00425Y00135D02*
Y0017D01*
X00473Y00218*
X00445Y00115D02*
X0046D01*
X00473Y00218D02*
X00525D01*
X0068Y00505D02*
X00684Y0051D01*
X0076*
X00281Y00198D02*
X0029Y00189D01*
X00281Y00198D02*
Y00215D01*
X0029Y00189D02*
X0035D01*
X00343Y00118D02*
X0035Y00111D01*
X00332Y00118D02*
X00343D01*
X0035Y00145D02*
Y00189D01*
Y00111D02*
X00351Y0011D01*
Y00075D02*
Y0011D01*
X00385Y00075D02*
X00386Y00073D01*
X00426*
X00705Y0035D02*
X0074D01*
X0068D02*
X00705D01*
X00426Y00054D02*
Y00073D01*
X0046D02*
Y00115D01*
X00688Y0056D02*
Y00576D01*
X00679Y00585D02*
X00688Y00576D01*
X0042Y00585D02*
X00679D01*
X00315Y0048D02*
X0042Y00585D01*
X00315Y00215D02*
Y0048D01*
Y00215D02*
X00318Y00218D01*
X00369*
X00455Y00148D02*
X0046D01*
X00525Y0031D02*
X00575Y0036D01*
X0045Y0031D02*
X00525D01*
X00575Y0036D02*
Y00523D01*
X00591Y00539*
X00562Y0055D02*
X00572Y0056D01*
X00655*
X00591Y00539D02*
X00615D01*
X0034Y0027D02*
X00369D01*
X00335Y00265D02*
X0034Y0027D01*
X00335Y0025D02*
Y00265D01*
Y0025D02*
X0034Y00245D01*
X00368*
X00369Y00244*
Y0027D02*
X0041D01*
X0045Y0031*
X00675Y0044D02*
X00745D01*
X00628Y00393D02*
X00675Y0044D01*
X00603Y00481D02*
Y00505D01*
Y00481D02*
X00615Y0047D01*
X0067*
X0068Y0048*
Y00505*
X00654D02*
Y00559D01*
X00791Y00383D02*
Y00426D01*
X00778Y0044D02*
X00791Y00426D01*
X0074Y0035D02*
X00791D01*
X0074Y00383D02*
X00791D01*
X00739Y00383D02*
X0074Y00383D01*
X00667Y00383D02*
X00739D01*
X00655Y0037D02*
X00667Y00383D01*
X00655Y0035D02*
Y0037D01*
X00628Y0035D02*
Y00393D01*
X00615Y00539D02*
X00628Y00525D01*
Y00505D02*
Y00525D01*
G54D16*
X0013Y0032D02*
X00175Y00275D01*
G54D17*
X00448Y0043D03*
G54D18*
X00577Y00242D03*
X00165Y0048D03*
X00525Y0012D03*
X0064Y0019D03*
X0049Y00146D03*
X0076Y0051D03*
X00562Y0055D03*
G54D19*
X006Y00195D03*
X00175Y00275D03*
G54D20*
X0015Y00215D03*
X00195Y0015D03*
X0076Y0061D03*
X00675Y00705D03*
X00755Y0021D03*
X0027Y00665D03*
X00605Y0067D03*
X00445Y00775D03*
X00175Y0067D03*
X00585Y0076D03*
X003Y00755D03*
M02*