M48
;Layer_Color=9474304
;FILE_FORMAT=2:5
INCH,LZ
;TYPE=PLATED
T1F00S00C0.01000
T2F00S00C0.01500
T3F00S00C0.02800
;TYPE=NON_PLATED
T4F00S00C0.19685
%
T01
X0049Y0014693
X00525Y0012
X005775Y002425
X0064Y0019
X0056224Y0055
X0076Y0051
X00165Y0048
T02
X006Y00195
X00175Y00275
T03
X00755Y0021
X0076Y0061
X00675Y00705
X00605Y0067
X00585Y0076
X00445Y00775
X003Y00755
X0027Y00665
X00175Y0067
X0015Y00215
X00195Y0015
T04
X0044815Y0043
M30
