G04 Layer_Physical_Order=1*
G04 Layer_Color=255*
%FSLAX25Y25*%
%MOIN*%
G70*
G01*
G75*
%ADD10R,0.01181X0.03740*%
%ADD11R,0.03740X0.01181*%
%ADD12R,0.02362X0.02165*%
%ADD13R,0.02165X0.02362*%
%ADD14C,0.05905*%
%ADD15C,0.01000*%
%ADD16C,0.01500*%
%ADD17C,0.07874*%
%ADD18C,0.02000*%
%ADD19C,0.03000*%
%ADD20C,0.05000*%
G36*
X63661Y31237D02*
X63661Y31237D01*
X63710Y31204D01*
X66878Y28035D01*
Y17299D01*
X57201Y7622D01*
X54781D01*
Y10683D01*
X54122D01*
Y11500D01*
X54122Y11500D01*
X54077Y11725D01*
X54131Y12000D01*
X54493Y12317D01*
X57781D01*
Y13668D01*
X58281Y13717D01*
X58310Y13571D01*
X58553Y13207D01*
X58917Y12964D01*
X59346Y12878D01*
X59776Y12964D01*
X60140Y13207D01*
X60383Y13571D01*
X60468Y14000D01*
Y15379D01*
X61846D01*
X61847Y15378D01*
X62276Y15464D01*
X62639Y15707D01*
X64793Y17861D01*
X64793Y17861D01*
X65036Y18224D01*
X65122Y18654D01*
X65122Y18654D01*
Y22847D01*
X65036Y23276D01*
X64793Y23640D01*
X64429Y23883D01*
X64000Y23968D01*
X63781Y23924D01*
X63281Y24245D01*
Y25183D01*
X62622D01*
Y25817D01*
X63281D01*
Y29183D01*
X61444D01*
Y32132D01*
X61691Y32530D01*
X62368D01*
X63661Y31237D01*
D02*
G37*
G36*
X48873Y84201D02*
X52892Y83604D01*
X56833Y82617D01*
X60658Y81248D01*
X64331Y79511D01*
X67816Y77423D01*
X71079Y75002D01*
X74089Y72274D01*
X76818Y69264D01*
X79238Y66000D01*
X81326Y62516D01*
X83063Y58843D01*
X84432Y55018D01*
X85419Y51077D01*
X86015Y47058D01*
X86215Y43000D01*
X86015Y38942D01*
X85419Y34923D01*
X84432Y30982D01*
X83063Y27157D01*
X81326Y23484D01*
X79238Y19999D01*
X76818Y16736D01*
X74089Y13726D01*
X71079Y10998D01*
X67816Y8577D01*
X64331Y6489D01*
X61392Y5099D01*
X61100Y5514D01*
X71293Y15707D01*
X71293Y15707D01*
X71536Y16071D01*
X71622Y16500D01*
X71622Y16500D01*
Y33878D01*
X72317D01*
Y33219D01*
X75683D01*
Y33878D01*
X77471D01*
Y33219D01*
X80836D01*
Y36565D01*
Y40128D01*
X80275D01*
Y42693D01*
X80275Y42693D01*
X80190Y43122D01*
X79947Y43486D01*
X79628Y43805D01*
Y45683D01*
X72719D01*
Y45122D01*
X67500D01*
X67071Y45036D01*
X66707Y44793D01*
X66707Y44793D01*
X62089Y40175D01*
X61846Y39811D01*
X61760Y39382D01*
X61760Y39382D01*
Y37868D01*
X61513Y37470D01*
X59132D01*
Y32530D01*
X59201D01*
Y28677D01*
X59201Y28677D01*
X59212Y28622D01*
X58815Y28122D01*
X54970D01*
Y28191D01*
X50030D01*
Y25809D01*
X50030D01*
Y25690D01*
X50030D01*
Y23310D01*
X49657Y23003D01*
X47382D01*
X47382Y23004D01*
X46953Y22918D01*
X46589Y22675D01*
X46589Y22675D01*
X41707Y17793D01*
X41464Y17429D01*
X41378Y17000D01*
X41378Y17000D01*
Y13500D01*
X41378Y13500D01*
X41464Y13071D01*
X41707Y12707D01*
X43707Y10707D01*
X43707Y10707D01*
X44071Y10464D01*
X44317Y10415D01*
Y9719D01*
X44878D01*
Y9029D01*
X40872D01*
Y8468D01*
X40281D01*
Y9183D01*
X37104D01*
X36683Y9373D01*
Y12935D01*
X35332D01*
X35282Y13435D01*
X35429Y13464D01*
X35793Y13707D01*
X36036Y14071D01*
X36122Y14500D01*
Y17548D01*
X36543Y17796D01*
X36972Y17881D01*
X37336Y18124D01*
X37742Y18530D01*
X37985Y18894D01*
X38070Y19323D01*
X37985Y19752D01*
X37742Y20116D01*
X37629Y20191D01*
X37781Y20691D01*
X39419D01*
Y23072D01*
X39419D01*
Y23250D01*
X39419D01*
Y25631D01*
X39817Y25878D01*
X41000D01*
X41000Y25878D01*
X41429Y25964D01*
X41793Y26207D01*
X45465Y29878D01*
X52500D01*
X52500Y29878D01*
X52929Y29964D01*
X53293Y30207D01*
X58293Y35207D01*
X58293Y35207D01*
X58536Y35571D01*
X58622Y36000D01*
X58622Y36000D01*
Y51846D01*
X59575Y52800D01*
X61070D01*
X61691Y52179D01*
Y51383D01*
X61191Y51231D01*
X61116Y51344D01*
X60752Y51587D01*
X60323Y51673D01*
X59894Y51587D01*
X59530Y51344D01*
X59287Y50980D01*
X59201Y50551D01*
Y48177D01*
X59201Y48177D01*
X59287Y47748D01*
X59530Y47384D01*
X60707Y46207D01*
X61071Y45964D01*
X61500Y45878D01*
X61500Y45878D01*
X67000D01*
X67000Y45878D01*
X67429Y45964D01*
X67793Y46207D01*
X68793Y47207D01*
X68793Y47207D01*
X69036Y47571D01*
X69122Y48000D01*
Y49878D01*
X76000D01*
X76429Y49964D01*
X76793Y50207D01*
X77036Y50571D01*
X77122Y51000D01*
X77036Y51429D01*
X76793Y51793D01*
X76429Y52036D01*
X76000Y52122D01*
X68449D01*
X68449Y52122D01*
X68020Y52036D01*
X67656Y51793D01*
X67656Y51793D01*
X67207Y51344D01*
X67132Y51231D01*
X66632Y51383D01*
Y53021D01*
X66562D01*
Y54317D01*
X70628D01*
Y57683D01*
X69962D01*
X69883Y58083D01*
X69639Y58447D01*
X69639Y58447D01*
X68710Y59376D01*
X68347Y59619D01*
X67917Y59704D01*
X67917Y59704D01*
X42083D01*
X42083Y59704D01*
X41653Y59619D01*
X41290Y59376D01*
X30707Y48793D01*
X30464Y48429D01*
X30378Y48000D01*
X30378Y48000D01*
Y23183D01*
X29719D01*
Y21832D01*
X29219Y21782D01*
X29190Y21929D01*
X28947Y22293D01*
X28583Y22536D01*
X28153Y22622D01*
X27724Y22536D01*
X27360Y22293D01*
X27117Y21929D01*
X26622Y22000D01*
Y32479D01*
X26691D01*
Y37419D01*
X24632D01*
X24309Y37419D01*
X23809Y37419D01*
X21750D01*
Y37419D01*
X21572D01*
Y37419D01*
X19498D01*
X15281Y41636D01*
X15461Y42073D01*
X15583Y43000D01*
X15461Y43927D01*
X15103Y44792D01*
X14534Y45534D01*
X13792Y46103D01*
X12927Y46461D01*
X12000Y46583D01*
X11073Y46461D01*
X10208Y46103D01*
X9466Y45534D01*
X8897Y44792D01*
X8539Y43927D01*
X8417Y43000D01*
X8539Y42073D01*
X8897Y41208D01*
X9466Y40466D01*
X10208Y39897D01*
X11073Y39539D01*
X12000Y39417D01*
X12927Y39539D01*
X13792Y39897D01*
X13824Y39921D01*
X19191Y34553D01*
Y32479D01*
X21572D01*
Y32479D01*
X21750D01*
Y32479D01*
X23809D01*
X24132Y32479D01*
X24378Y32081D01*
Y19615D01*
X24378Y19615D01*
X24464Y19186D01*
X24707Y18822D01*
X32503Y11026D01*
X32503Y11026D01*
X32867Y10783D01*
X33296Y10697D01*
X33317Y10222D01*
Y9660D01*
X33317Y9373D01*
X33317D01*
X33372Y9183D01*
X33372Y9183D01*
Y5817D01*
X40281D01*
Y6225D01*
X40872D01*
Y5664D01*
X41133D01*
X41532Y5429D01*
X41617Y5000D01*
X41860Y4636D01*
X42526Y3971D01*
X42526Y3971D01*
X42890Y3728D01*
X43319Y3642D01*
X43319Y3642D01*
X55811D01*
X55872Y3142D01*
X52892Y2396D01*
X48873Y1799D01*
X44815Y1600D01*
X40757Y1799D01*
X36738Y2396D01*
X32797Y3383D01*
X28972Y4752D01*
X25299Y6489D01*
X21814Y8577D01*
X18551Y10998D01*
X15541Y13726D01*
X12812Y16736D01*
X10392Y19999D01*
X8303Y23484D01*
X6566Y27157D01*
X5198Y30982D01*
X4211Y34923D01*
X3614Y38942D01*
X3415Y43000D01*
X3614Y47058D01*
X4211Y51077D01*
X5198Y55018D01*
X6566Y58843D01*
X8303Y62516D01*
X10392Y66000D01*
X12812Y69264D01*
X15541Y72274D01*
X18551Y75002D01*
X21814Y77423D01*
X25299Y79511D01*
X28972Y81248D01*
X32797Y82617D01*
X36738Y83604D01*
X40757Y84201D01*
X44815Y84400D01*
X48873Y84201D01*
D02*
G37*
G36*
X50030Y20691D02*
X51668D01*
X51820Y20191D01*
X51707Y20116D01*
X51464Y19752D01*
X51378Y19323D01*
X51464Y18894D01*
X51707Y18530D01*
X52071Y18287D01*
X52500Y18201D01*
X54213D01*
X56231Y16183D01*
X56024Y15683D01*
X54219D01*
Y15066D01*
X54071Y15036D01*
X53707Y14793D01*
X53707Y14793D01*
X52538Y13624D01*
X52500Y13631D01*
X51876Y13507D01*
X51346Y13153D01*
X50993Y12624D01*
X50869Y12000D01*
X50993Y11376D01*
X51143Y11151D01*
X51219Y10683D01*
X51219Y10683D01*
X51219Y10683D01*
Y8521D01*
X50757Y8329D01*
X50122Y8965D01*
Y13518D01*
X50153Y13539D01*
X50507Y14069D01*
X50631Y14693D01*
X50507Y15317D01*
X50153Y15846D01*
X49624Y16200D01*
X49000Y16324D01*
X48376Y16200D01*
X48183Y16071D01*
X47683Y16338D01*
Y16628D01*
X44421D01*
X44140Y17054D01*
X47846Y20760D01*
X50030D01*
Y20691D01*
D02*
G37*
%LPC*%
G36*
X26869Y52970D02*
X26368Y52970D01*
X24573D01*
X24309Y52970D01*
X23809Y52970D01*
X21691Y52970D01*
X21191Y52970D01*
X19191D01*
Y51622D01*
X19000D01*
X18571Y51536D01*
X18207Y51293D01*
X18207Y51293D01*
X16538Y49624D01*
X16500Y49631D01*
X15876Y49507D01*
X15347Y49154D01*
X14993Y48624D01*
X14869Y48000D01*
X14993Y47376D01*
X15347Y46847D01*
X15876Y46493D01*
X16500Y46369D01*
X17124Y46493D01*
X17653Y46847D01*
X18007Y47376D01*
X18131Y48000D01*
X18124Y48038D01*
X18729Y48643D01*
X19191Y48452D01*
Y48030D01*
X21191D01*
X21572Y48030D01*
X22072Y48030D01*
X23809D01*
X24072Y48030D01*
X24573Y48030D01*
X26368D01*
X26691Y48030D01*
X27191Y48030D01*
X29250D01*
Y52970D01*
X26869Y52970D01*
D02*
G37*
G36*
X12000Y37135D02*
X11073Y37012D01*
X10208Y36654D01*
X9466Y36085D01*
X8897Y35343D01*
X8539Y34479D01*
X8417Y33551D01*
X8539Y32624D01*
X8897Y31760D01*
X9466Y31017D01*
X10208Y30448D01*
X11073Y30090D01*
X12000Y29968D01*
X12927Y30090D01*
X12953Y30100D01*
X15391Y27662D01*
X15359Y27500D01*
X15522Y26681D01*
X15986Y25986D01*
X16681Y25522D01*
X17500Y25359D01*
X18319Y25522D01*
X19014Y25986D01*
X19478Y26681D01*
X19641Y27500D01*
X19478Y28319D01*
X19014Y29014D01*
X18319Y29478D01*
X17500Y29641D01*
X17338Y29609D01*
X15128Y31819D01*
X15461Y32624D01*
X15583Y33551D01*
X15461Y34479D01*
X15103Y35343D01*
X14534Y36085D01*
X13792Y36654D01*
X12927Y37012D01*
X12000Y37135D01*
D02*
G37*
%LPD*%
D10*
X20382Y50500D02*
D03*
X22882D02*
D03*
X25500D02*
D03*
X28059D02*
D03*
Y34949D02*
D03*
X25500D02*
D03*
X22941D02*
D03*
X20382D02*
D03*
X68000Y50551D02*
D03*
X65441D02*
D03*
X62882D02*
D03*
X60323D02*
D03*
Y35000D02*
D03*
X62882D02*
D03*
X65500D02*
D03*
X68000D02*
D03*
D11*
X36949Y27000D02*
D03*
Y24441D02*
D03*
Y21882D02*
D03*
Y19323D02*
D03*
X52500D02*
D03*
Y21882D02*
D03*
Y24500D02*
D03*
Y27000D02*
D03*
D12*
X31500Y21500D02*
D03*
X28153D02*
D03*
X46000Y7346D02*
D03*
X42654D02*
D03*
X56346Y9000D02*
D03*
X53000D02*
D03*
X59346Y14000D02*
D03*
X56000D02*
D03*
X64846Y23500D02*
D03*
X61500D02*
D03*
X64846Y27500D02*
D03*
X61500D02*
D03*
X35153Y7500D02*
D03*
X38500D02*
D03*
X74500Y44000D02*
D03*
X77846D02*
D03*
X68846Y56000D02*
D03*
X65500D02*
D03*
D13*
X46000Y11500D02*
D03*
Y14846D02*
D03*
X74000Y38346D02*
D03*
Y35000D02*
D03*
X35000Y14500D02*
D03*
Y11153D02*
D03*
X79154Y38346D02*
D03*
Y35000D02*
D03*
D14*
X12000Y52449D02*
D03*
Y43000D02*
D03*
Y33551D02*
D03*
D15*
X52500Y24500D02*
X57500D01*
X57750Y24250D01*
X13000Y32000D02*
Y33602D01*
X60323Y28677D02*
X61500Y27500D01*
X60323Y28677D02*
Y35000D01*
X61000Y27000D02*
X61500Y27500D01*
X52500Y27000D02*
X61000D01*
X61500Y23500D02*
Y26492D01*
X60000Y22000D02*
X61500Y23500D01*
X60000Y19500D02*
Y22000D01*
X62882Y33602D02*
Y35000D01*
Y33602D02*
X64454Y32030D01*
X64470D02*
X68000Y28500D01*
X64454Y32030D02*
X64470D01*
X68000Y16834D02*
Y28500D01*
X57666Y6500D02*
X68000Y16834D01*
X57500Y16500D02*
X59346D01*
X54677Y19323D02*
X57500Y16500D01*
X70500D02*
Y35000D01*
X58764Y4764D02*
X70500Y16500D01*
X43319Y4764D02*
X58764D01*
X51000Y6500D02*
X57666D01*
X49000Y8500D02*
X51000Y6500D01*
X49000Y8500D02*
Y14693D01*
X42654Y5429D02*
X43319Y4764D01*
X36543Y18917D02*
X36949Y19323D01*
X35000Y18917D02*
X36543D01*
X13000Y42331D02*
Y43051D01*
X19000Y50500D02*
X20382D01*
X16500Y48000D02*
X19000Y50500D01*
X13000Y42331D02*
X20382Y34949D01*
X22941D01*
X25500Y19615D02*
X33296Y11819D01*
X25500Y19615D02*
Y34949D01*
X59500Y16500D02*
X61847D01*
X59346D02*
X59500D01*
X59346Y16346D02*
Y16500D01*
Y14000D02*
Y16346D01*
X61847Y16500D02*
X64000Y18654D01*
X59346Y16346D02*
X59500Y16500D01*
X54500Y14000D02*
X56000D01*
X52500Y12000D02*
X54500Y14000D01*
X52500Y12000D02*
X53000Y11500D01*
Y9000D02*
Y11500D01*
X64000Y18654D02*
Y19000D01*
Y22847D01*
X52500Y19323D02*
X54677D01*
X46154Y14693D02*
X49000D01*
X46000Y14846D02*
X46154Y14693D01*
X42500Y13500D02*
X44500Y11500D01*
X42500Y13500D02*
Y17000D01*
X47382Y21882D01*
X44500Y11500D02*
X46000D01*
X47382Y21882D02*
X52500D01*
X68000Y50551D02*
X68449Y51000D01*
X76000D01*
X28153Y19847D02*
X29083Y18917D01*
X28153Y19847D02*
Y21500D01*
X29083Y18917D02*
X35000D01*
X34335Y11819D02*
X35000Y11153D01*
X33296Y11819D02*
X34335D01*
X35000Y14500D02*
Y18917D01*
Y11153D02*
X35153Y11000D01*
Y7500D02*
Y11000D01*
X38500Y7500D02*
X38653Y7346D01*
X42654D01*
X70500Y35000D02*
X74000D01*
X68000D02*
X70500D01*
X42654Y5429D02*
Y7346D01*
X46000D02*
Y11500D01*
X68846Y56000D02*
Y57653D01*
X67917Y58583D02*
X68846Y57653D01*
X42083Y58583D02*
X67917D01*
X31500Y48000D02*
X42083Y58583D01*
X31500Y21500D02*
Y48000D01*
Y21500D02*
X31882Y21882D01*
X36949D01*
X45500Y14846D02*
X46000D01*
X52500Y31000D02*
X57500Y36000D01*
X45000Y31000D02*
X52500D01*
X57500Y36000D02*
Y52310D01*
X59111Y53921D01*
X56224Y55000D02*
X57224Y56000D01*
X65500D01*
X59111Y53921D02*
X61535D01*
X34000Y27000D02*
X36949D01*
X33500Y26500D02*
X34000Y27000D01*
X33500Y25000D02*
Y26500D01*
Y25000D02*
X34000Y24500D01*
X36890D01*
X36949Y24441D01*
Y27000D02*
X41000D01*
X45000Y31000D01*
X67500Y44000D02*
X74500D01*
X62882Y39382D02*
X67500Y44000D01*
X60323Y48177D02*
Y50551D01*
Y48177D02*
X61500Y47000D01*
X67000D01*
X68000Y48000D01*
Y50551D01*
X65441D02*
Y55941D01*
X79154Y38346D02*
Y42693D01*
X77846Y44000D02*
X79154Y42693D01*
X74000Y35000D02*
X79154D01*
X74000Y38346D02*
X79154D01*
X73976Y38370D02*
X74000Y38346D01*
X66788Y38370D02*
X73976D01*
X65500Y37082D02*
X66788Y38370D01*
X65500Y35000D02*
Y37082D01*
X62882Y35000D02*
Y39382D01*
X61535Y53921D02*
X62882Y52574D01*
Y50551D02*
Y52574D01*
D16*
X13000Y32000D02*
X17500Y27500D01*
D17*
X44815Y43000D02*
D03*
D18*
X57750Y24250D02*
D03*
X16500Y48000D02*
D03*
X52500Y12000D02*
D03*
X64000Y19000D02*
D03*
X49000Y14693D02*
D03*
X76000Y51000D02*
D03*
X56224Y55000D02*
D03*
D19*
X60000Y19500D02*
D03*
X17500Y27500D02*
D03*
D20*
X15000Y21500D02*
D03*
X19500Y15000D02*
D03*
X76000Y61000D02*
D03*
X67500Y70500D02*
D03*
X75500Y21000D02*
D03*
X27000Y66500D02*
D03*
X60500Y67000D02*
D03*
X44500Y77500D02*
D03*
X17500Y67000D02*
D03*
X58500Y76000D02*
D03*
X30000Y75500D02*
D03*
M02*
