G04 Layer_Physical_Order=2*
G04 Layer_Color=16711680*
%FSLAX25Y25*%
%MOIN*%
G70*
G01*
G75*
%ADD15C,0.01000*%
%ADD16C,0.01500*%
%ADD17C,0.07874*%
%ADD18C,0.02000*%
%ADD19C,0.03000*%
%ADD20C,0.05000*%
%ADD21R,0.11811X0.19685*%
%ADD22R,0.19685X0.11811*%
%ADD23C,0.02000*%
G36*
X48873Y84201D02*
X52892Y83604D01*
X56833Y82617D01*
X60658Y81248D01*
X64331Y79511D01*
X67816Y77423D01*
X71079Y75002D01*
X74089Y72274D01*
X76818Y69264D01*
X79238Y66000D01*
X81326Y62516D01*
X83063Y58843D01*
X84432Y55018D01*
X85419Y51077D01*
X86015Y47058D01*
X86215Y43000D01*
X86015Y38942D01*
X85419Y34923D01*
X84432Y30982D01*
X83063Y27157D01*
X81326Y23484D01*
X79238Y19999D01*
X76818Y16736D01*
X74089Y13726D01*
X71079Y10998D01*
X67816Y8577D01*
X64331Y6489D01*
X60658Y4752D01*
X56833Y3383D01*
X52892Y2396D01*
X48873Y1799D01*
X44815Y1600D01*
X40757Y1799D01*
X36738Y2396D01*
X32797Y3383D01*
X28972Y4752D01*
X25299Y6489D01*
X21814Y8577D01*
X18551Y10998D01*
X15541Y13726D01*
X12812Y16736D01*
X10392Y19999D01*
X8303Y23484D01*
X6566Y27157D01*
X5198Y30982D01*
X4211Y34923D01*
X3614Y38942D01*
X3415Y43000D01*
X3614Y47058D01*
X4211Y51077D01*
X5198Y55018D01*
X6566Y58843D01*
X8303Y62516D01*
X10392Y66000D01*
X12812Y69264D01*
X15541Y72274D01*
X18551Y75002D01*
X21814Y77423D01*
X25299Y79511D01*
X28972Y81248D01*
X32797Y82617D01*
X36738Y83604D01*
X40757Y84201D01*
X44815Y84400D01*
X48873Y84201D01*
D02*
G37*
%LPC*%
G36*
X55257Y69191D02*
X34372D01*
Y58550D01*
X29265Y53443D01*
X18624D01*
Y32557D01*
X29437D01*
X34372Y27736D01*
Y16809D01*
X48621D01*
X48668Y16768D01*
X48520Y16229D01*
X48376Y16200D01*
X47846Y15846D01*
X47493Y15317D01*
X47369Y14693D01*
X47493Y14069D01*
X47846Y13539D01*
X48376Y13186D01*
X49000Y13062D01*
X49624Y13186D01*
X50153Y13539D01*
X50175Y13571D01*
X51072D01*
X51199Y13378D01*
X51292Y13071D01*
X50993Y12624D01*
X50943Y12376D01*
X34570D01*
X19609Y27338D01*
X19641Y27500D01*
X19478Y28319D01*
X19014Y29014D01*
X18319Y29478D01*
X17621Y29617D01*
Y46825D01*
X17653Y46847D01*
X18007Y47376D01*
X18131Y48000D01*
X18007Y48624D01*
X17653Y49154D01*
X17124Y49507D01*
X16500Y49631D01*
X15876Y49507D01*
X15347Y49154D01*
X14993Y48624D01*
X14869Y48000D01*
X14993Y47376D01*
X15347Y46847D01*
X15379Y46825D01*
Y28500D01*
X15378Y28500D01*
X15464Y28071D01*
X15470Y28061D01*
X15359Y27500D01*
X15522Y26681D01*
X15986Y25986D01*
X16681Y25522D01*
X17500Y25359D01*
X17662Y25391D01*
X33027Y10027D01*
X33027Y10027D01*
X33473Y9728D01*
X34000Y9624D01*
X56500D01*
X57027Y9728D01*
X57473Y10027D01*
X60973Y13527D01*
X61272Y13973D01*
X61377Y14500D01*
X61376Y14500D01*
Y17894D01*
X61514Y17986D01*
X61978Y18681D01*
X62141Y19500D01*
X61978Y20319D01*
X61514Y21014D01*
X60819Y21478D01*
X60000Y21641D01*
X59181Y21478D01*
X58963Y21332D01*
X58522Y21568D01*
Y22841D01*
X58903Y23097D01*
X59257Y23626D01*
X59381Y24250D01*
X59257Y24874D01*
X58903Y25403D01*
X58374Y25757D01*
X57750Y25881D01*
X57126Y25757D01*
X56596Y25403D01*
X56243Y24874D01*
X56119Y24250D01*
X56243Y23626D01*
X56278Y23572D01*
Y17750D01*
X55757Y17229D01*
X55257Y17436D01*
Y27397D01*
X60112Y32557D01*
X71005D01*
Y53443D01*
X60022D01*
X57392Y56139D01*
X55257Y58328D01*
Y69191D01*
D02*
G37*
%LPD*%
D15*
X66610Y42825D02*
X66727Y44232D01*
X45327Y64664D02*
X45327Y64664D01*
X43315Y65185D02*
X45327Y64664D01*
X45249Y64785D02*
X45249Y64785D01*
X43315Y65185D02*
X45249Y64785D01*
X23374Y43195D02*
X23630Y45500D01*
X23130Y41000D02*
X23374Y43195D01*
X66257Y44714D02*
X66727Y44232D01*
X66250Y41250D02*
X67000Y42000D01*
X45249Y64785D02*
X46630Y64500D01*
X45327Y64664D02*
X47296Y64154D01*
X66610Y42825D02*
X66683Y41922D01*
X54807Y14693D02*
X57400Y17286D01*
Y23900D01*
X57750Y24250D01*
X16500Y28500D02*
Y48000D01*
Y28500D02*
X17500Y27500D01*
X49000Y14693D02*
X54807D01*
X52500Y11500D02*
Y12000D01*
Y11500D02*
X53000Y11000D01*
X66500Y19000D02*
X81500Y34000D01*
X64000Y19000D02*
X66500D01*
X76000Y51000D02*
X81500Y45500D01*
Y34000D02*
Y45500D01*
X23130Y41000D02*
X23154Y40977D01*
X66257Y44714D02*
X66257Y44714D01*
X45249Y64785D02*
X45249D01*
D16*
X34000Y11000D02*
X53000D01*
X17500Y27500D02*
X34000Y11000D01*
X53000D02*
X56500D01*
X60000Y14500D01*
Y19500D01*
D17*
X44815Y43000D02*
D03*
D18*
X57750Y24250D02*
D03*
X16500Y48000D02*
D03*
X52500Y12000D02*
D03*
X64000Y19000D02*
D03*
X49000Y14693D02*
D03*
X76000Y51000D02*
D03*
X56224Y55000D02*
D03*
D19*
X60000Y19500D02*
D03*
X17500Y27500D02*
D03*
D20*
X15000Y21500D02*
D03*
X19500Y15000D02*
D03*
X76000Y61000D02*
D03*
X67500Y70500D02*
D03*
X75500Y21000D02*
D03*
X27000Y66500D02*
D03*
X60500Y67000D02*
D03*
X44500Y77500D02*
D03*
X17500Y67000D02*
D03*
X58500Y76000D02*
D03*
X30000Y75500D02*
D03*
D21*
X64500Y43000D02*
D03*
X25130D02*
D03*
D22*
X44815Y62685D02*
D03*
Y23315D02*
D03*
D23*
X56224Y55000D02*
X66257Y44714D01*
X66257Y44714D01*
X23630Y45500D02*
X43315Y65185D01*
X48291Y22372D02*
X66196Y41405D01*
X66196Y41405D02*
X66683Y41922D01*
X23154Y40977D02*
X43042Y21547D01*
X66196Y41405D02*
X66196Y41405D01*
X47296Y64154D02*
X56224Y55000D01*
M02*
