G04 Layer_Color=65535*
%FSLAX25Y25*%
%MOIN*%
G70*
G01*
G75*
%ADD15C,0.01000*%
%ADD24C,0.00787*%
%ADD25C,0.00500*%
D15*
X17382Y38449D02*
G03*
X17382Y38449I-500J0D01*
G01*
X72000Y47051D02*
G03*
X72000Y47051I-500J0D01*
G01*
X40949Y30500D02*
G03*
X40949Y30500I-500J0D01*
G01*
D24*
X19382Y38949D02*
Y46949D01*
X28882D01*
Y38949D02*
Y46949D01*
X19382Y38949D02*
X28882D01*
X59500Y46551D02*
X69000D01*
X59500Y38551D02*
Y46551D01*
Y38551D02*
X69000D01*
Y46551D01*
X40949Y18500D02*
Y28000D01*
Y18500D02*
X48949D01*
Y28000D01*
X40949D02*
X48949D01*
D25*
X20000Y57499D02*
Y55000D01*
X20500Y54500D01*
X21499D01*
X21999Y55000D01*
Y57499D01*
X22999Y56999D02*
X23499Y57499D01*
X24499D01*
X24998Y56999D01*
Y56499D01*
X24499Y55999D01*
X23999D01*
X24499D01*
X24998Y55500D01*
Y55000D01*
X24499Y54500D01*
X23499D01*
X22999Y55000D01*
X61846Y9999D02*
X61346Y10499D01*
X60346D01*
X59847Y9999D01*
Y8000D01*
X60346Y7500D01*
X61346D01*
X61846Y8000D01*
X62845Y9999D02*
X63345Y10499D01*
X64345D01*
X64845Y9999D01*
Y9499D01*
X64345Y8999D01*
X64845Y8500D01*
Y8000D01*
X64345Y7500D01*
X63345D01*
X62845Y8000D01*
Y8500D01*
X63345Y8999D01*
X62845Y9499D01*
Y9999D01*
X63345Y8999D02*
X64345D01*
X64846Y15999D02*
X64346Y16499D01*
X63346D01*
X62846Y15999D01*
Y14000D01*
X63346Y13500D01*
X64346D01*
X64846Y14000D01*
X65846Y16499D02*
X67845D01*
Y15999D01*
X65846Y14000D01*
Y13500D01*
X69999Y23999D02*
X69499Y24499D01*
X68500D01*
X68000Y23999D01*
Y22000D01*
X68500Y21500D01*
X69499D01*
X69999Y22000D01*
X72998Y24499D02*
X71999Y23999D01*
X70999Y22999D01*
Y22000D01*
X71499Y21500D01*
X72499D01*
X72998Y22000D01*
Y22500D01*
X72499Y22999D01*
X70999D01*
X69846Y28499D02*
X69346Y28999D01*
X68346D01*
X67847Y28499D01*
Y26500D01*
X68346Y26000D01*
X69346D01*
X69846Y26500D01*
X72845Y28999D02*
X70846D01*
Y27499D01*
X71845Y27999D01*
X72345D01*
X72845Y27499D01*
Y26500D01*
X72345Y26000D01*
X71345D01*
X70846Y26500D01*
X76999Y31499D02*
X76499Y31999D01*
X75500D01*
X75000Y31499D01*
Y29500D01*
X75500Y29000D01*
X76499D01*
X76999Y29500D01*
X77999Y29000D02*
X78999D01*
X78499D01*
Y31999D01*
X77999Y31499D01*
X29499Y13653D02*
X29000Y14153D01*
X28000D01*
X27500Y13653D01*
Y11653D01*
X28000Y11153D01*
X29000D01*
X29499Y11653D01*
X32498Y11153D02*
X30499D01*
X32498Y13153D01*
Y13653D01*
X31999Y14153D01*
X30999D01*
X30499Y13653D01*
X40499Y14499D02*
X39999Y14999D01*
X39000D01*
X38500Y14499D01*
Y12500D01*
X39000Y12000D01*
X39999D01*
X40499Y12500D01*
X41499Y14499D02*
X41999Y14999D01*
X42999D01*
X43498Y14499D01*
Y13999D01*
X42999Y13499D01*
X42499D01*
X42999D01*
X43498Y13000D01*
Y12500D01*
X42999Y12000D01*
X41999D01*
X41499Y12500D01*
X28999Y26999D02*
X28499Y27499D01*
X27500D01*
X27000Y26999D01*
Y25000D01*
X27500Y24500D01*
X28499D01*
X28999Y25000D01*
X31499Y24500D02*
Y27499D01*
X29999Y26000D01*
X31998D01*
X82000Y40500D02*
X84999D01*
Y39000D01*
X84499Y38501D01*
X83499D01*
X83000Y39000D01*
Y40500D01*
Y39500D02*
X82000Y38501D01*
Y37501D02*
Y36501D01*
Y37001D01*
X84999D01*
X84499Y37501D01*
X27500Y6000D02*
Y8999D01*
X29000D01*
X29499Y8499D01*
Y7500D01*
X29000Y7000D01*
X27500D01*
X28500D02*
X29499Y6000D01*
X32498D02*
X30499D01*
X32498Y7999D01*
Y8499D01*
X31999Y8999D01*
X30999D01*
X30499Y8499D01*
X74000Y46500D02*
Y49499D01*
X75499D01*
X75999Y48999D01*
Y48000D01*
X75499Y47500D01*
X74000D01*
X75000D02*
X75999Y46500D01*
X76999Y48999D02*
X77499Y49499D01*
X78499D01*
X78998Y48999D01*
Y48499D01*
X78499Y48000D01*
X77999D01*
X78499D01*
X78998Y47500D01*
Y47000D01*
X78499Y46500D01*
X77499D01*
X76999Y47000D01*
X65000Y58583D02*
Y61582D01*
X66500D01*
X66999Y61082D01*
Y60082D01*
X66500Y59582D01*
X65000D01*
X66000D02*
X66999Y58583D01*
X69499D02*
Y61582D01*
X67999Y60082D01*
X69998D01*
X42000Y2000D02*
Y4999D01*
X43499D01*
X43999Y4499D01*
Y3500D01*
X43499Y3000D01*
X42000D01*
X43000D02*
X43999Y2000D01*
X46998Y4999D02*
X44999D01*
Y3500D01*
X45999Y3999D01*
X46499D01*
X46998Y3500D01*
Y2500D01*
X46499Y2000D01*
X45499D01*
X44999Y2500D01*
X59111Y56920D02*
Y54421D01*
X59611Y53921D01*
X60611D01*
X61110Y54421D01*
Y56920D01*
X62110Y53921D02*
X63110D01*
X62610D01*
Y56920D01*
X62110Y56420D01*
X32000Y33499D02*
Y31000D01*
X32500Y30500D01*
X33500D01*
X33999Y31000D01*
Y33499D01*
X36998Y30500D02*
X34999D01*
X36998Y32499D01*
Y32999D01*
X36499Y33499D01*
X35499D01*
X34999Y32999D01*
M02*
